<svg width="120" height="34" viewBox="0 0 120 34" fill="none" xmlns="http://www.w3.org/2000/svg">
<g id="Group 4">
<path id="Vector 1" d="M72.6819 33.5006L66.4822 11.1514H71.3251L76.1304 29.3549H78.9947L83.8189 11.1514H88.6807L82.4621 33.5006H72.6819Z" fill="white"/>
<rect id="Rectangle 3" y="0.485352" width="8.70603" height="8.29146" fill="#3B81F4"/>
<rect id="Rectangle 7" x="114.12" y="3.57617" width="5.8794" height="5.61558" fill="#3B81F4"/>
<rect id="Rectangle 5" x="12.2109" y="0.485352" width="29.5101" height="8.29146" fill="#3B81F4"/>
<rect id="Rectangle 4" y="12.2061" width="8.70603" height="21.2563" fill="#3B81F4"/>
<rect id="Rectangle 6" x="22.6129" y="8.77637" width="8.70603" height="24.6859" fill="#3B81F4"/>
<path id="Union" fill-rule="evenodd" clip-rule="evenodd" d="M50.842 2.89746H46.0555V33.4628H50.842V33.4627H55.8164V29.3169H50.842V2.89746Z" fill="white"/>
<path id="Union_2" fill-rule="evenodd" clip-rule="evenodd" d="M61.2821 7.83418C62.7599 7.83418 63.958 6.63615 63.958 5.1583C63.958 3.68045 62.7599 2.48242 61.2821 2.48242C59.8042 2.48242 58.6062 3.68045 58.6062 5.1583C58.6062 6.63615 59.8042 7.83418 61.2821 7.83418ZM63.6564 11.1132H58.8699V33.4624H63.6564V11.1132Z" fill="white"/>
<path id="Subtract" fill-rule="evenodd" clip-rule="evenodd" d="M100.816 11.0762C94.7594 11.0762 89.8491 15.9899 89.8491 22.0512V22.4881C89.8491 28.5494 94.7594 33.4631 100.816 33.4631C105.086 33.4631 108.786 31.0212 110.598 27.4569H106.152C104.846 28.9095 102.953 29.823 100.847 29.823C97.4463 29.823 94.6012 27.4412 93.8868 24.2535H111.643C111.736 23.6788 111.784 23.089 111.784 22.4881V22.0512C111.784 15.9899 106.874 11.0762 100.816 11.0762ZM100.847 14.8983C104.248 14.8983 107.093 17.2801 107.808 20.4678H93.8868C94.6012 17.2801 97.4463 14.8983 100.847 14.8983Z" fill="white"/>
</g>
</svg>
